<?xml version="1.0" encoding="UTF-8"?>
<svg width="284px" height="300px" viewBox="0 0 284 300" version="1.1" xmlns="http://www.w3.org/2000/svg" xmlns:xlink="http://www.w3.org/1999/xlink">
    <!-- Generator: Sketch 52.3 (67297) - http://www.bohemiancoding.com/sketch -->
    <title>Artboard</title>
    <desc>Created with Sketch.</desc>
    <defs>
        <polygon id="path-1" points="0.872996341 0.345674798 141.409 0.345674798 141.409 87.5338 0.872996341 87.5338"></polygon>
        <polygon id="path-3" points="0 0.343086502 140.536804 0.343086502 140.536804 87.5338 0 87.5338"></polygon>
    </defs>
    <g id="Artboard" stroke="none" stroke-width="1" fill="none" fill-rule="evenodd">
        <g id="Group-3" transform="translate(138.000000, 144.397000)">
            <mask id="mask-2" fill="white">
                <use xlink:href="#path-1"></use>
            </mask>
            <g id="Clip-2"></g>
            <path d="M37.7766,87.5338 C36.9666,87.5338 36.1716,87.1888 35.6206,86.5558 L1.5486,47.2398 C0.9656,46.5648 0.7426,45.6588 0.9476,44.7998 C1.1546,43.9408 1.7636,43.2268 2.5916,42.8778 L103.3896,0.5658 C104.5256,0.0938 105.8536,0.3968 106.6586,1.3218 L140.7336,40.6378 C141.3156,41.3088 141.5386,42.2178 141.3356,43.0778 C141.1286,43.9368 140.5186,44.6498 139.6906,44.9998 L38.8896,87.3118 C38.5306,87.4608 38.1516,87.5338 37.7766,87.5338 Z M8.3546,46.5108 L38.5816,81.3918 L133.9306,41.3668 L103.6976,6.4858 L8.3546,46.5108 Z" id="Fill-1" fill="#FFFFFF" mask="url(#mask-2)"></path>
        </g>
        <g id="Group-6" transform="translate(4.000000, 144.397000)">
            <mask id="mask-4" fill="white">
                <use xlink:href="#path-3"></use>
            </mask>
            <g id="Clip-5"></g>
            <path d="M103.6312,87.5338 C103.2562,87.5338 102.8772,87.4608 102.5182,87.3118 L1.7192,44.9998 C0.8912,44.6498 0.2812,43.9368 0.0742,43.0768 C-0.1308,42.2178 0.0922,41.3128 0.6762,40.6378 L34.7492,1.3218 C35.5562,0.3928 36.8822,0.0898 38.0182,0.5658 L138.8182,42.8778 C139.6462,43.2268 140.2552,43.9408 140.4622,44.7998 C140.6672,45.6588 140.4442,46.5688 139.8612,47.2398 L105.7872,86.5558 C105.2362,87.1888 104.4412,87.5338 103.6312,87.5338 Z M7.4812,41.3668 L102.8262,81.3918 L133.0552,46.5108 L37.7102,6.4858 L7.4812,41.3668 Z" id="Fill-4" fill="#FFFFFF" mask="url(#mask-4)"></path>
        </g>
        <path d="M141.7048,295.397 C141.3258,295.397 140.9468,295.324 140.5918,295.175 L39.7928,252.862 C38.7498,252.425 38.0738,251.416 38.0738,250.304 L38.0738,201.14 C38.0738,199.605 39.3418,198.358 40.9058,198.358 C42.4698,198.358 43.7368,199.605 43.7368,201.14 L43.7368,248.466 L141.7048,289.592 L239.6048,248.497 C237.9798,201.65 239.4908,200.165 240.4988,199.175 C241.5958,198.09 243.3968,198.086 244.5018,199.172 C245.4038,200.054 245.5718,201.381 245.0098,202.433 C244.1898,206.116 244.6968,232.403 245.3338,250.208 C245.3728,251.355 244.6888,252.41 243.6158,252.862 L142.8178,295.175 C142.4628,295.324 142.0838,295.397 141.7048,295.397" id="Fill-7" fill="#FFFFFF"></path>
        <path d="M141.7048,295.397 C140.1408,295.397 138.8738,294.15 138.8738,292.616 L138.8738,189.834 C138.8738,188.299 140.1408,187.052 141.7048,187.052 C143.2688,187.052 144.5368,188.299 144.5368,189.834 L144.5368,292.616 C144.5368,294.15 143.2688,295.397 141.7048,295.397" id="Fill-9" fill="#FFFFFF"></path>
        <path d="M141.7048,162.5605 C140.8648,162.5605 140.0708,162.1965 139.5318,161.5635 L72.2768,82.4755 C71.4778,81.5355 71.3978,80.1885 72.0808,79.1645 L92.1438,49.1135 C92.6668,48.3305 93.5578,47.8585 94.5128,47.8585 L188.8968,47.8585 C189.8518,47.8585 190.7428,48.3305 191.2658,49.1135 L211.3288,79.1645 C212.0118,80.1885 211.9318,81.5355 211.1328,82.4755 L143.8778,161.5635 C143.3388,162.1965 142.5448,162.5605 141.7048,162.5605 Z M77.9688,80.4915 L141.7048,155.4405 L205.4408,80.4915 L187.3678,53.4215 L96.0418,53.4215 L77.9688,80.4915 Z" id="Fill-11" fill="#FFFFFF"></path>
        <path d="M208.9598,83.4725 L74.4498,83.4725 C72.8858,83.4725 71.6188,82.2255 71.6188,80.6915 C71.6188,79.1565 72.8858,77.9095 74.4498,77.9095 L208.9598,77.9095 C210.5238,77.9095 211.7908,79.1565 211.7908,80.6915 C211.7908,82.2255 210.5238,83.4725 208.9598,83.4725" id="Fill-13" fill="#FFFFFF"></path>
        <path d="M118.1078,83.4725 C117.2288,83.4725 116.4008,83.0735 115.8658,82.3905 L92.2708,52.3395 C91.6108,51.4995 91.4958,50.3645 91.9718,49.4125 C92.4488,48.4615 93.4328,47.8585 94.5128,47.8585 L141.7048,47.8585 C142.7848,47.8585 143.7688,48.4615 144.2458,49.4125 C144.7218,50.3645 144.6068,51.4995 143.9468,52.3395 L120.3498,82.3905 C119.8148,83.0735 118.9848,83.4725 118.1078,83.4725 Z M100.2728,53.4215 L118.1078,76.1375 L135.9438,53.4215 L100.2728,53.4215 Z" id="Fill-15" fill="#FFFFFF"></path>
        <path d="M165.302,83.4725 C164.425,83.4725 163.595,83.0735 163.06,82.3905 L139.463,52.3395 C138.803,51.4995 138.688,50.3645 139.164,49.4125 C139.641,48.4615 140.625,47.8585 141.705,47.8585 L188.897,47.8585 C189.977,47.8585 190.961,48.4615 191.438,49.4125 C191.914,50.3645 191.799,51.4995 191.139,52.3395 L167.544,82.3905 C167.009,83.0735 166.181,83.4725 165.302,83.4725 Z M147.465,53.4215 L165.302,76.1375 L183.136,53.4215 L147.465,53.4215 Z" id="Fill-17" fill="#FFFFFF"></path>
        <path d="M141.703,162.5605 C140.479,162.5605 139.35,161.7745 138.989,160.5615 L115.392,81.4735 C114.95,80.0005 115.811,78.4545 117.311,78.0205 C118.801,77.5755 120.383,78.4355 120.824,79.9085 L144.421,158.9965 C144.863,160.4695 144.001,162.0155 142.502,162.4495 C142.236,162.5265 141.967,162.5605 141.703,162.5605" id="Fill-19" fill="#FFFFFF"></path>
        <path d="M141.7069,162.5605 C141.4429,162.5605 141.1739,162.5265 140.9079,162.4495 C139.4089,162.0155 138.5469,160.4695 138.9889,158.9965 L162.5859,79.9085 C163.0249,78.4355 164.5989,77.5755 166.0989,78.0205 C167.5989,78.4545 168.4599,80.0005 168.0179,81.4735 L144.4209,160.5615 C144.0599,161.7745 142.9309,162.5605 141.7069,162.5605" id="Fill-21" fill="#FFFFFF"></path>
        <path d="M68.3418,63.5652 C67.9298,63.5652 67.5118,63.4772 67.1158,63.2892 L52.8658,56.5522 C51.4588,55.8882 50.8648,54.2232 51.5418,52.8422 C52.2218,51.4532 53.9088,50.8702 55.3228,51.5422 L69.5718,58.2782 C70.9798,58.9422 71.5738,60.6072 70.8958,61.9882 C70.4078,62.9862 69.3968,63.5652 68.3418,63.5652" id="Fill-23" fill="#FFFFFF"></path>
        <path d="M215.066,63.5652 C214.011,63.5652 213,62.9862 212.512,61.9882 C211.834,60.6072 212.428,58.9422 213.836,58.2782 L228.087,51.5422 C229.499,50.8742 231.188,51.4532 231.867,52.8422 C232.545,54.2232 231.951,55.8882 230.544,56.5522 L216.292,63.2892 C215.896,63.4772 215.478,63.5652 215.066,63.5652" id="Fill-25" fill="#FFFFFF"></path>
        <path d="M141.7048,27.0999 C140.1408,27.0999 138.8738,25.8529 138.8738,24.3189 L138.8738,8.7809 C138.8738,7.2469 140.1408,5.9999 141.7048,5.9999 C143.2688,5.9999 144.5368,7.2469 144.5368,8.7809 L144.5368,24.3189 C144.5368,25.8529 143.2688,27.0999 141.7048,27.0999" id="Fill-27" fill="#FFFFFF"></path>
        <path d="M93.4543,33.9825 C92.3583,33.9825 91.3163,33.3575 90.8533,32.3055 L84.5753,18.0495 C83.9543,16.6375 84.6143,15.0035 86.0493,14.3935 C87.4883,13.7755 89.1523,14.4285 89.7733,15.8395 L96.0513,30.0965 C96.6723,31.5085 96.0123,33.1425 94.5773,33.7525 C94.2103,33.9095 93.8293,33.9825 93.4543,33.9825" id="Fill-30" fill="#FFFFFF"></path>
        <path d="M189.9556,33.9825 C189.5806,33.9825 189.1996,33.9095 188.8326,33.7525 C187.3976,33.1425 186.7376,31.5085 187.3586,30.0965 L193.6366,15.8395 C194.2576,14.4285 195.9176,13.7755 197.3606,14.3935 C198.7956,15.0035 199.4556,16.6375 198.8346,18.0495 L192.5566,32.3055 C192.0936,33.3575 191.0506,33.9825 189.9556,33.9825" id="Fill-32" fill="#FFFFFF"></path>
        <path d="M141.7048,192.6151 C141.3258,192.6151 140.9468,192.5421 140.5918,192.3921 L39.7928,150.0801 C38.7498,149.6431 38.0738,148.6341 38.0738,147.5211 C38.0738,146.4091 38.7498,145.4001 39.7928,144.9631 L96.2738,121.2541 C97.7148,120.6551 99.3768,121.3071 99.9898,122.7191 C100.6048,124.1311 99.9378,125.7651 98.4998,126.3711 L48.1108,147.5211 L141.7048,186.8101 L235.2968,147.5211 L184.1968,126.0721 C182.7598,125.4661 182.0918,123.8321 182.7068,122.4201 C183.3198,121.0081 184.9818,120.3601 186.4228,120.9541 L243.6158,144.9631 C244.6578,145.4001 245.3338,146.4091 245.3338,147.5211 C245.3338,148.6341 244.6578,149.6431 243.6158,150.0801 L142.8178,192.3921 C142.4628,192.5421 142.0838,192.6151 141.7048,192.6151" id="Fill-34" fill="#FFFFFF"></path>
    </g>
</svg>